<?xml version="1.0" encoding="iso-8859-1"?>
<!-- Uploaded to: SVG Repo, www.svgrepo.com, Generator: SVG Repo Mixer Tools -->
<svg version="1.1" id="Layer_1" xmlns="http://www.w3.org/2000/svg" xmlns:xlink="http://www.w3.org/1999/xlink" 
	 viewBox="0 0 511.978 511.978" xml:space="preserve">
<path style="fill:#656D78;" d="M460.203,386.353l-1.812-0.531c-26.468-7.093-35.436-13.937-47.217-18.405
	c-41.781-15.937-52.655-27.405-55.437-32.843c-0.109-0.188-0.188-0.406-0.281-0.594l-0.344-48.562l-99.122-1.124l-99.131,1.125
	l-0.344,48.562c-0.086,0.188-0.164,0.406-0.266,0.594c-2.781,5.438-13.655,16.906-55.451,32.843
	c-11.789,4.469-20.75,11.312-47.218,18.405l-1.812,0.531c-24.093,7.969-40.304,30.312-40.304,55.53v70.093H255.99h244.525v-70.093
	C500.515,416.666,484.297,394.322,460.203,386.353z"/>
<path style="fill:#DBAFA5;" d="M382.127,354.73L382.127,354.73c-3.25-1.656-6.109-3.25-8.641-4.75h-0.016
	c-0.844-0.5-1.641-1-2.406-1.469c-0.016-0.031-0.016-0.031-0.016-0.031c-0.359-0.219-0.719-0.438-1.062-0.688
	c-0.031,0-0.062-0.031-0.094-0.031c-0.703-0.469-1.375-0.906-2.016-1.344c-0.047-0.031-0.078-0.062-0.109-0.094
	c-0.281-0.188-0.547-0.375-0.812-0.562c-0.047-0.031-0.094-0.062-0.156-0.094c-0.578-0.438-1.125-0.844-1.656-1.219
	c-0.062-0.062-0.125-0.094-0.188-0.156c-0.203-0.156-0.406-0.312-0.594-0.438c-0.062-0.062-0.124-0.094-0.187-0.156
	c-0.25-0.188-0.469-0.375-0.719-0.562l0,0c-0.219,0.219-0.344,0.094-0.375-0.312c-4.25-3.5-6.344-6.281-7.344-8.25
	c-0.109-0.188-0.188-0.406-0.281-0.594l-0.344-48.562l-99.121-1.124l-99.131,1.125l-0.344,48.562
	c-0.086,0.188-0.164,0.406-0.266,0.594c-1.836,3.594-7.203,9.781-22.655,18.188c4.43,5.312,13.578,15.062,27.757,24.718
	c18.68,12.687,50.257,27.843,94.639,27.843c44.217,0,77.342-15.031,97.325-27.655C367.142,368.948,376.799,360.168,382.127,354.73z"
	/>
<path style="fill:#EAC6BB;" d="M393.549,191.484c0,89.373-85.217,171.621-137.559,171.621c-52.351,0-137.552-82.248-137.552-171.621
	S180.023,43.143,255.99,43.143S393.549,102.111,393.549,191.484z"/>
<path style="fill:#2b9af1;" d="M326.988,50.862c0,0-2.672-23.78,25.812-40.874c12.062-7.25-180.753-41.624-229.143,80.217
	c-18.187,45.78-4.742,113.122-4.742,113.122l41.905-75.123c0,0,45.671,10.656,95.17,10.656c49.498,0,96.825-10.656,96.825-10.656
	l40.733,63.499c0,0,15.641-60.967-1.891-101.373S326.988,50.862,326.988,50.862z"/>
<path style="fill:#434A54;" d="M382.127,354.73c-8.672-4.438-14.609-8.312-18.671-11.594c-4.906,4.594-12.375,10.781-22.265,16.969
	c-25.453,15.843-54.109,23.873-85.201,23.873c-30.897,0-58.429-7.937-81.834-23.592c-11.266-7.562-18.82-15.188-22.82-19.719
	c-3.469,3.281-8.983,7.344-17.741,12.094c4.43,5.312,13.578,15.062,27.757,24.718c18.68,12.687,50.257,27.843,94.639,27.843
	c44.217,0,77.342-15.031,97.325-27.655C367.142,368.948,376.799,360.168,382.127,354.73z"/>
<path style="fill:#656D78;" d="M120.11,213.327h271.751c1.062-7.062,1.656-14.156,1.672-21.343H118.446
	C118.469,199.171,119.048,206.264,120.11,213.327z"/>
<g>
	<path style="fill:#999999;" d="M251.49,202.639c0,20.625-2.609,37.343-53.335,37.343c-50.725,0-53.334-16.718-53.334-37.343
		c0-20.593,7.843-37.312,53.334-37.312C243.654,165.328,251.49,182.047,251.49,202.639z"/>
	<path style="fill:#999999;" d="M369.283,202.639c0,20.625-2.609,37.343-53.326,37.343c-50.732,0-53.342-16.718-53.342-37.343
		c0-20.593,7.835-37.312,53.342-37.312C361.44,165.328,369.283,182.047,369.283,202.639z"/>
</g>
<rect x="245.64" y="298.658" style="fill:#AAB2BC;" width="21.327" height="213.32"/>
<path style="fill:#CCD1D9;" d="M277.958,287.981h-42.679c-17.64,0-31.999,14.359-31.999,31.999v85.326
	c0,17.656,14.359,32.016,31.999,32.016h42.679c17.624,0,31.999-14.359,31.999-32.016V319.98
	C309.957,302.341,295.582,287.981,277.958,287.981z"/>
<path style="fill:#AAB2BC;" d="M267.278,384.431V373.76h42.679v-21.327h-42.679v-10.672h42.679v-21.328H203.28v21.328h42.671v10.672
	H203.28v21.327h42.671v10.671H203.28v20.875c0,0.156,0.008,0.312,0.016,0.453h106.63c0.016-0.141,0.031-0.297,0.031-0.453v-20.875
	H267.278z"/>
</svg>